# xmcd
#
# Track frame offsets: 
#        150
#        19015
#        34505
#        63800
#        97718
#        119215
#        138700
#        151805
#        186835
#
# Disc length: 2723 seconds
#
# Revision: 2
# Processed by: cddbd v1.5.2PL0 Copyright (c) Steve Scherf et al.
# Submitted via: ExactAudioCopyFreeDBPlugin 1.0
#
DISCID=6e0aa109
DTITLE=Albert King - I Wanna Get Funky
DYEAR=1972
DGENRE=Blues
TTITLE0=I Wanna Get Funky
TTITLE1=Playing On Me
TTITLE2=Walking The Back Streets And Crying
TTITLE3='Til My Back Ain't Got No Bone
TTITLE4=Flat Tire
TTITLE5=I Can't Hear Nothing But The Blues
TTITLE6=Travelin' Man
TTITLE7=Crosscut Saw
TTITLE8=That's What The Blues Is All About
EXTD=YEAR: 1972
EXTT0=
EXTT1=
EXTT2=
EXTT3=
EXTT4=
EXTT5=
EXTT6=
EXTT7=
EXTT8=
PLAYORDER=
